<svg version="1.1" viewBox="0.0 0.0 198.18372703412072 239.29658792650918" fill="none" stroke="none" stroke-linecap="square" stroke-miterlimit="10" xmlns:xlink="http://www.w3.org/1999/xlink" xmlns="http://www.w3.org/2000/svg"><clipPath id="p.0"><path d="m0 0l198.18373 0l0 239.29659l-198.18373 0l0 -239.29659z" clip-rule="nonzero"/></clipPath><g clip-path="url(#p.0)"><path fill="#000000" fill-opacity="0.0" d="m0 0l198.18373 0l0 239.29659l-198.18373 0z" fill-rule="evenodd"/><path fill="#0000ff" d="m100.56705 87.79821l48.0 -86.3937l48.0 86.3937z" fill-rule="evenodd"/><path stroke="#0000ff" stroke-width="1.0" stroke-linejoin="round" stroke-linecap="butt" d="m100.56705 87.79821l48.0 -86.3937l48.0 86.3937z" fill-rule="evenodd"/><path fill="#cfe2f3" d="m0 139.08923l192.0 0l0 95.71654l-192.0 0z" fill-rule="evenodd"/><path fill="#0000ff" d="m1.7559212 141.19759l192.0 0l0 95.71654l-192.0 0z" fill-rule="evenodd"/><path stroke="#0000ff" stroke-width="1.0" stroke-linejoin="round" stroke-linecap="butt" d="m1.7559212 141.19759l192.0 0l0 95.71654l-192.0 0z" fill-rule="evenodd"/><path fill="#0000ff" d="m100.56705 87.60178l96.0 0l0 149.29135l-96.0 0z" fill-rule="evenodd"/><path stroke="#0000ff" stroke-width="1.0" stroke-linejoin="round" stroke-linecap="butt" d="m100.56705 87.60178l96.0 0l0 149.29135l-96.0 0z" fill-rule="evenodd"/></g></svg>