<svg version="1.1" viewBox="0.0 0.0 357.53805774278214 516.8976377952756" fill="none" stroke="none" stroke-linecap="square" stroke-miterlimit="10" xmlns:xlink="http://www.w3.org/1999/xlink" xmlns="http://www.w3.org/2000/svg"><clipPath id="p.0"><path d="m0 0l357.53806 0l0 516.89764l-357.53806 0l0 -516.89764z" clip-rule="nonzero"/></clipPath><g clip-path="url(#p.0)"><path fill="#000000" fill-opacity="0.0" d="m0 0l357.53806 0l0 516.89764l-357.53806 0z" fill-rule="evenodd"/><path fill="#d9d9d9" d="m0 59.376514l0 0c0 -32.792744 26.58377 -59.376514 59.376514 -59.376514l237.49895 0l0 0c15.74762 0 30.85028 6.255722 41.985535 17.390978c11.135254 11.135258 17.390991 26.237906 17.390991 41.985535l0 396.9635c0 32.792725 -26.583801 59.376526 -59.376526 59.376526l-237.49895 0c-32.792744 0 -59.376514 -26.583801 -59.376514 -59.376526z" fill-rule="evenodd"/><path stroke="#000000" stroke-width="1.0" stroke-linejoin="round" stroke-linecap="butt" d="m0 59.376514l0 0c0 -32.792744 26.58377 -59.376514 59.376514 -59.376514l237.49895 0l0 0c15.74762 0 30.85028 6.255722 41.985535 17.390978c11.135254 11.135258 17.390991 26.237906 17.390991 41.985535l0 396.9635c0 32.792725 -26.583801 59.376526 -59.376526 59.376526l-237.49895 0c-32.792744 0 -59.376514 -26.583801 -59.376514 -59.376526z" fill-rule="evenodd"/><path fill="#cfe2f3" d="m94.125984 242.19948l0 0c0 -46.391922 37.608086 -84.0 84.00001 -84.0l0 0c22.278183 0 43.643906 8.849976 59.396957 24.603027c15.753067 15.753052 24.603027 37.11879 24.603027 59.396973l0 0c0 46.391922 -37.608078 83.999985 -83.999985 83.999985l0 0c-46.391922 0 -84.00001 -37.608063 -84.00001 -83.999985z" fill-rule="evenodd"/><path stroke="#7f6000" stroke-width="2.0" stroke-linejoin="round" stroke-linecap="butt" d="m94.125984 242.19948l0 0c0 -46.391922 37.608086 -84.0 84.00001 -84.0l0 0c22.278183 0 43.643906 8.849976 59.396957 24.603027c15.753067 15.753052 24.603027 37.11879 24.603027 59.396973l0 0c0 46.391922 -37.608078 83.999985 -83.999985 83.999985l0 0c-46.391922 0 -84.00001 -37.608063 -84.00001 -83.999985z" fill-rule="evenodd"/><path fill="#f0c11d" d="m203.4804 142.45334l0 0c38.372147 10.01297 67.598465 41.14987 75.16472 80.078445c7.5662537 38.928574 -7.869171 78.74605 -39.697083 102.403305l-61.49588 -82.73517z" fill-rule="evenodd"/><path stroke="#990000" stroke-width="4.0" stroke-linejoin="round" stroke-linecap="butt" d="m203.4804 142.45334l0 0c38.372147 10.01297 67.598465 41.14987 75.16472 80.078445c7.5662537 38.928574 -7.869171 78.74605 -39.697083 102.403305l-61.49588 -82.73517z" fill-rule="evenodd"/><path fill="#74c141" d="m238.55278 325.34518c-28.729736 21.05545 -66.29347 25.788025 -99.34798 12.516632c-33.054497 -13.271393 -56.916054 -42.66626 -63.108665 -77.74304l101.51844 -17.9225z" fill-rule="evenodd"/><path stroke="#990000" stroke-width="4.0" stroke-linejoin="round" stroke-linecap="butt" d="m238.55278 325.34518c-28.729736 21.05545 -66.29347 25.788025 -99.34798 12.516632c-33.054497 -13.271393 -56.916054 -42.66626 -63.108665 -77.74304l101.51844 -17.9225z" fill-rule="evenodd"/><path fill="#5c5d57" d="m75.837234 259.04636l0 0c-5.9752045 -36.091705 7.628769 -72.64624 35.745674 -96.0504c28.116905 -23.404144 66.532936 -30.15036 100.94161 -17.726318l-35.00325 96.94231z" fill-rule="evenodd"/><path stroke="#990000" stroke-width="4.0" stroke-linejoin="round" stroke-linecap="butt" d="m75.837234 259.04636l0 0c-5.9752045 -36.091705 7.628769 -72.64624 35.745674 -96.0504c28.116905 -23.404144 66.532936 -30.15036 100.94161 -17.726318l-35.00325 96.94231z" fill-rule="evenodd"/><path fill="#000000" fill-opacity="0.0" d="m74.36483 242.19948l0 0c0 -56.933167 46.15345 -103.086624 103.08662 -103.086624l0 0c27.340271 0 53.560745 10.860886 72.893234 30.193375c19.332504 19.332489 30.193375 45.55298 30.193375 72.89325l0 0c0 56.93315 -46.153442 103.086624 -103.08661 103.086624l0 0c-56.933167 0 -103.08662 -46.153473 -103.08662 -103.086624z" fill-rule="evenodd"/><path stroke="#1d4688" stroke-width="4.0" stroke-linejoin="round" stroke-linecap="butt" d="m74.36483 242.19948l0 0c0 -56.933167 46.15345 -103.086624 103.08662 -103.086624l0 0c27.340271 0 53.560745 10.860886 72.893234 30.193375c19.332504 19.332489 30.193375 45.55298 30.193375 72.89325l0 0c0 56.93315 -46.153442 103.086624 -103.08661 103.086624l0 0c-56.933167 0 -103.08662 -46.153473 -103.08662 -103.086624z" fill-rule="evenodd"/></g></svg>