<svg version="1.1" viewBox="0.0 0.0 357.53805774278214 516.8976377952756" fill="none" stroke="none" stroke-linecap="square" stroke-miterlimit="10" xmlns:xlink="http://www.w3.org/1999/xlink" xmlns="http://www.w3.org/2000/svg"><clipPath id="p.0"><path d="m0 0l357.53806 0l0 516.89764l-357.53806 0l0 -516.89764z" clip-rule="nonzero"/></clipPath><g clip-path="url(#p.0)"><path fill="#000000" fill-opacity="0.0" d="m0 0l357.53806 0l0 516.89764l-357.53806 0z" fill-rule="evenodd"/><path fill="#1d4688" d="m0 59.376514l0 0c0 -32.792744 26.58377 -59.376514 59.376514 -59.376514l237.49895 0l0 0c15.74762 0 30.85028 6.255722 41.985535 17.390978c11.135254 11.135258 17.390991 26.237906 17.390991 41.985535l0 396.9635c0 32.792725 -26.583801 59.376526 -59.376526 59.376526l-237.49895 0c-32.792744 0 -59.376514 -26.583801 -59.376514 -59.376526z" fill-rule="evenodd"/><path stroke="#000000" stroke-width="1.0" stroke-linejoin="round" stroke-linecap="butt" d="m0 59.376514l0 0c0 -32.792744 26.58377 -59.376514 59.376514 -59.376514l237.49895 0l0 0c15.74762 0 30.85028 6.255722 41.985535 17.390978c11.135254 11.135258 17.390991 26.237906 17.390991 41.985535l0 396.9635c0 32.792725 -26.583801 59.376526 -59.376526 59.376526l-237.49895 0c-32.792744 0 -59.376514 -26.583801 -59.376514 -59.376526z" fill-rule="evenodd"/><path fill="#cfe2f3" d="m94.125984 242.19948l0 0c0 -46.391922 37.608086 -84.0 84.00001 -84.0l0 0c22.278183 0 43.643906 8.849976 59.396957 24.603027c15.753067 15.753052 24.603027 37.11879 24.603027 59.396973l0 0c0 46.391922 -37.608078 83.999985 -83.999985 83.999985l0 0c-46.391922 0 -84.00001 -37.608063 -84.00001 -83.999985z" fill-rule="evenodd"/><path stroke="#7f6000" stroke-width="2.0" stroke-linejoin="round" stroke-linecap="butt" d="m94.125984 242.19948l0 0c0 -46.391922 37.608086 -84.0 84.00001 -84.0l0 0c22.278183 0 43.643906 8.849976 59.396957 24.603027c15.753067 15.753052 24.603027 37.11879 24.603027 59.396973l0 0c0 46.391922 -37.608078 83.999985 -83.999985 83.999985l0 0c-46.391922 0 -84.00001 -37.608063 -84.00001 -83.999985z" fill-rule="evenodd"/><path fill="#f0c11d" d="m276.28708 212.89966c12.29715 41.480453 -2.61557 86.22595 -37.33905 112.03543l-61.49588 -82.73517z" fill-rule="evenodd"/><path stroke="#7f6000" stroke-width="3.0" stroke-linejoin="round" stroke-linecap="butt" d="m276.28708 212.89966c12.29715 41.480453 -2.61557 86.22595 -37.33905 112.03543l-61.49588 -82.73517z" fill-rule="evenodd"/><path fill="#74c141" d="m238.55278 325.34518c-35.82022 26.251953 -84.42676 26.613342 -120.63336 0.8968811l59.69516 -84.04579z" fill-rule="evenodd"/><path stroke="#7f6000" stroke-width="3.0" stroke-linejoin="round" stroke-linecap="butt" d="m238.55278 325.34518c-35.82022 26.251953 -84.42676 26.613342 -120.63336 0.8968811l59.69516 -84.04579z" fill-rule="evenodd"/><path fill="#b8602f" d="m-281.3882 77.55591l47.999985 -95.999954l126.708664 0l48.000004 95.999954l-48.000004 95.999954l-126.708664 0z" fill-rule="evenodd"/><path stroke="#7f6000" stroke-width="4.0" stroke-linejoin="round" stroke-linecap="butt" d="m-281.3882 77.55591l47.999985 -95.999954l126.708664 0l48.000004 95.999954l-48.000004 95.999954l-126.708664 0z" fill-rule="evenodd"/><path fill="#b8602f" d="m115.52358 324.06198l0 0c-34.393127 -26.312408 -48.6715 -71.31697 -35.73816 -112.644424l98.36585 30.783386z" fill-rule="evenodd"/><path stroke="#7f6000" stroke-width="3.0" stroke-linejoin="round" stroke-linecap="butt" d="m115.52358 324.06198l0 0c-34.393127 -26.312408 -48.6715 -71.31697 -35.73816 -112.644424l98.36585 30.783386z" fill-rule="evenodd"/><path fill="#228c43" d="m80.8884 207.94292l0 0c14.392326 -40.853622 52.786194 -68.35443 96.09819 -68.83333l1.1398468 103.08934z" fill-rule="evenodd"/><path stroke="#7f6000" stroke-width="3.0" stroke-linejoin="round" stroke-linecap="butt" d="m80.8884 207.94292l0 0c14.392326 -40.853622 52.786194 -68.35443 96.09819 -68.83333l1.1398468 103.08934z" fill-rule="evenodd"/><path fill="#5c5d57" d="m176.36678 139.15028l0 0c45.87436 -0.5138855 86.565994 29.35524 99.82457 73.274826l-98.670074 29.786835z" fill-rule="evenodd"/><path stroke="#7f6000" stroke-width="3.0" stroke-linejoin="round" stroke-linecap="butt" d="m176.36678 139.15028l0 0c45.87436 -0.5138855 86.565994 29.35524 99.82457 73.274826l-98.670074 29.786835z" fill-rule="evenodd"/></g></svg>