<svg version="1.1" viewBox="0.0 0.0 357.53805774278214 516.8976377952756" fill="none" stroke="none" stroke-linecap="square" stroke-miterlimit="10" xmlns:xlink="http://www.w3.org/1999/xlink" xmlns="http://www.w3.org/2000/svg"><clipPath id="p.0"><path d="m0 0l357.53806 0l0 516.89764l-357.53806 0l0 -516.89764z" clip-rule="nonzero"/></clipPath><g clip-path="url(#p.0)"><path fill="#000000" fill-opacity="0.0" d="m0 0l357.53806 0l0 516.89764l-357.53806 0z" fill-rule="evenodd"/><path fill="#fff2cc" d="m9.837271 61.997776l0 0c0 -31.117012 25.22532 -56.342335 56.34233 -56.342335l225.36258 0l0 0c14.942932 0 29.273804 5.9360504 39.840057 16.502287c10.566223 10.5662365 16.502289 24.897131 16.502289 39.84005l0 390.52792c0 31.117035 -25.225342 56.342346 -56.342346 56.342346l-225.36258 0c-31.117012 0 -56.34233 -25.225311 -56.34233 -56.342346z" fill-rule="evenodd"/><path fill="#000000" fill-opacity="0.0" d="m5.1548557 62.652077l0 0c0 -31.972273 25.918648 -57.890923 57.890923 -57.890923l231.55673 0l0 0c15.353638 0 30.07843 6.0992045 40.93506 16.955858c10.856659 10.856653 16.955872 25.581438 16.955872 40.935066l0 391.9662c0 31.97229 -25.91864 57.89096 -57.89093 57.89096l-231.55673 0c-31.972273 0 -57.890923 -25.91867 -57.890923 -57.89096z" fill-rule="evenodd"/><path stroke="#1d4688" stroke-width="8.0" stroke-linejoin="round" stroke-linecap="butt" d="m5.1548557 62.652077l0 0c0 -31.972273 25.918648 -57.890923 57.890923 -57.890923l231.55673 0l0 0c15.353638 0 30.07843 6.0992045 40.93506 16.955858c10.856659 10.856653 16.955872 25.581438 16.955872 40.935066l0 391.9662c0 31.97229 -25.91864 57.89096 -57.89093 57.89096l-231.55673 0c-31.972273 0 -57.890923 -25.91867 -57.890923 -57.89096z" fill-rule="evenodd"/><path fill="#000000" fill-opacity="0.0" d="m24.687664 44.17323l308.34647 0l0 58.17323l-308.34647 0z" fill-rule="evenodd"/><path fill="#000000" d="m93.26715 84.20573l-2.234375 0l-8.5625 -23.203121l4.46875 0l5.296875 15.468746l5.59375 -15.468746l4.375 0l-8.9375 23.203121zm13.609375 -23.531246q0.9375 0 1.59375 0.671875q0.671875 0.65625 0.671875 1.59375q0 0.9375 -0.671875 1.6093712q-0.65625 0.65625 -1.59375 0.65625q-0.9375 0 -1.609375 -0.65625q-0.65625 -0.6718712 -0.65625 -1.6093712q0 -0.9375 0.65625 -1.59375q0.671875 -0.671875 1.609375 -0.671875zm-2.015625 23.218746l0 -13.53125l-2.140625 0l0 -3.203125l6.09375 0l0 16.734375l-3.953125 0zm21.625 -15.40625l-1.671875 2.921875q-1.375 -1.296875 -3.6875 -1.296875q-2.21875 0 -3.515625 1.484375q-1.28125 1.46875 -1.28125 4.078125q0 5.265625 5.015625 5.265625q2.171875 0 3.828125 -1.4375l1.4375 3.078125q-1.703125 1.0625 -2.984375 1.34375q-1.265625 0.28125 -3.0 0.28125q-3.875 0 -6.125 -2.25q-2.234375 -2.265625 -2.234375 -6.28125q0 -3.953125 2.453125 -6.390625q2.453125 -2.4375 6.6875 -2.4375q2.921875 0 5.078125 1.640625zm3.84375 1.8125l-1.9375 0l0 -3.140625l1.9375 0l0 -3.4062462l3.90625 -1.4375l0 4.843746l4.59375 0l0 3.140625l-4.59375 0l0 7.328125q0 1.796875 0.5625 2.546875q0.5625 0.734375 1.96875 0.734375q1.40625 0 2.625 -0.765625l0 3.59375q-1.359375 0.46875 -3.875 0.46875q-2.5 0 -3.84375 -1.40625q-1.34375 -1.421875 -1.34375 -4.03125l0 -8.46875zm11.0 5.1875q0 -3.828125 2.203125 -6.234375q2.21875 -2.40625 5.84375 -2.40625q3.8125 0 5.921875 2.3125q2.109375 2.3125 2.109375 6.328125q0 4.0 -2.15625 6.359375q-2.140625 2.359375 -5.875 2.359375q-3.8125 0 -5.9375 -2.375q-2.109375 -2.390625 -2.109375 -6.34375zm4.0625 0q0 5.53125 3.984375 5.53125q1.828125 0 2.890625 -1.4375q1.078125 -1.4375 1.078125 -4.09375q0 -5.453125 -3.96875 -5.453125q-1.828125 0 -2.90625 1.4375q-1.078125 1.4375 -1.078125 4.015625zm24.8125 -4.6875q-1.046875 -0.6875 -2.296875 -0.6875q-1.359375 0 -2.421875 1.234375q-1.046875 1.234375 -1.046875 3.015625l0 9.53125l-3.90625 0l0 -16.734375l3.90625 0l0 1.53125q1.640625 -1.84375 4.359375 -1.84375q2.0 0 3.0625 0.609375l-1.65625 3.34375zm11.40625 15.78125q-0.625 1.671875 -2.6875 2.765625q-2.046875 1.109375 -4.78125 1.109375l0 -3.453125q4.515625 0 4.515625 -2.265625q0 -1.5 -1.25 -4.59375l-5.234375 -12.984375l4.046875 0l4.5625 11.5625l4.109375 -11.5625l4.046875 0l-7.328125 19.421875zm23.609375 -11.109375l0 8.421875l-4.0625 0l0 -22.874996q4.0625 -0.171875 4.75 -0.171875q5.421875 0 7.921875 1.671875q2.515625 1.6562462 2.515625 5.187496q0 7.875 -9.28125 7.875q-0.6875 0 -1.84375 -0.109375zm0 -10.9375l0 7.328125q1.03125 0.109375 1.625 0.109375q2.78125 0 4.0625 -0.921875q1.28125 -0.9375 1.28125 -3.03125q0 -3.5625 -5.734375 -3.5625q-0.640625 0 -1.234375 0.078125zm11.890625 10.953125q0 -3.828125 2.203125 -6.234375q2.21875 -2.40625 5.84375 -2.40625q3.8125 0 5.921875 2.3125q2.109375 2.3125 2.109375 6.328125q0 4.0 -2.15625 6.359375q-2.140625 2.359375 -5.875 2.359375q-3.8125 0 -5.9375 -2.375q-2.109375 -2.390625 -2.109375 -6.34375zm4.0625 0q0 5.53125 3.984375 5.53125q1.828125 0 2.890625 -1.4375q1.078125 -1.4375 1.078125 -4.09375q0 -5.453125 -3.96875 -5.453125q-1.828125 0 -2.90625 1.4375q-1.078125 1.4375 -1.078125 4.015625zm18.203125 -14.812496q0.9375 0 1.59375 0.671875q0.671875 0.65625 0.671875 1.59375q0 0.9375 -0.671875 1.6093712q-0.65625 0.65625 -1.59375 0.65625q-0.9375 0 -1.609375 -0.65625q-0.65625 -0.6718712 -0.65625 -1.6093712q0 -0.9375 0.65625 -1.59375q0.671875 -0.671875 1.609375 -0.671875zm-2.015625 23.218746l0 -13.53125l-2.140625 0l0 -3.203125l6.09375 0l0 16.734375l-3.953125 0zm19.265625 0l0 -9.671875q0 -2.140625 -0.828125 -3.125q-0.8125 -0.984375 -2.671875 -0.984375q-0.859375 0 -1.84375 0.484375q-0.96875 0.484375 -1.515625 1.203125l0 12.09375l-3.90625 0l0 -16.734375l2.8125 0l0.71875 1.5625q1.59375 -1.875 4.703125 -1.875q2.984375 0 4.703125 1.796875q1.734375 1.78125 1.734375 4.984375l0 10.265625l-3.90625 0zm8.71875 -13.59375l-1.9375 0l0 -3.140625l1.9375 0l0 -3.4062462l3.90625 -1.4375l0 4.843746l4.59375 0l0 3.140625l-4.59375 0l0 7.328125q0 1.796875 0.5625 2.546875q0.5625 0.734375 1.96875 0.734375q1.40625 0 2.625 -0.765625l0 3.59375q-1.359375 0.46875 -3.875 0.46875q-2.5 0 -3.84375 -1.40625q-1.34375 -1.421875 -1.34375 -4.03125l0 -8.46875z" fill-rule="nonzero"/><path fill="#d9d9d9" d="m58.860893 284.44095l59.894028 -103.79523l120.21195 0l59.894028 103.79523l-59.894028 103.79523l-120.21195 0z" fill-rule="evenodd"/><path stroke="#1d4688" stroke-width="8.0" stroke-linejoin="round" stroke-linecap="butt" d="m58.860893 284.44095l59.894028 -103.79523l120.21195 0l59.894028 103.79523l-59.894028 103.79523l-120.21195 0z" fill-rule="evenodd"/><path fill="#000000" d="m184.40385 301.52094l-6.578125 0l0 -24.828125q-3.609375 3.375 -8.515625 5.0l0 -5.984375q2.578125 -0.84375 5.59375 -3.1875q3.03125 -2.359375 4.15625 -5.5l5.34375 0l0 34.5z" fill-rule="nonzero"/></g></svg>