<svg version="1.1" viewBox="0.0 0.0 106.08923884514435 106.08923884514435" fill="none" stroke="none" stroke-linecap="square" stroke-miterlimit="10" xmlns:xlink="http://www.w3.org/1999/xlink" xmlns="http://www.w3.org/2000/svg"><clipPath id="p.0"><path d="m0 0l106.08924 0l0 106.08924l-106.08924 0l0 -106.08924z" clip-rule="nonzero"/></clipPath><g clip-path="url(#p.0)"><path fill="#000000" fill-opacity="0.0" d="m0 0l106.08924 0l0 106.08924l-106.08924 0z" fill-rule="evenodd"/><path fill="#ffdfbe" d="m0.20679948 53.00995l0 0c0 -29.162374 23.640776 -52.80315 52.80315 -52.80315l0 0c14.004265 0 27.434952 5.563173 37.337463 15.465685c9.902512 9.902511 15.465683 23.333199 15.465683 37.337463l0 0c0 29.162376 -23.64077 52.803146 -52.803146 52.803146l0 0c-29.162374 0 -52.80315 -23.64077 -52.80315 -52.803146z" fill-rule="evenodd"/><path fill="#000000" fill-opacity="0.0" d="m18.498617 61.32965l68.97638 0l0 28.409447l-68.97638 0z" fill-rule="evenodd"/><path fill="#ff0000" d="m26.68212 80.8309q0 -1.640625 1.15625 -2.796875q1.171875 -1.15625 2.796875 -1.15625q1.6406269 0 2.796877 1.15625q1.171875 1.15625 1.171875 2.796875q0 1.640625 -1.171875 2.8125q-1.15625 1.15625 -2.796877 1.15625q-1.625 0 -2.796875 -1.15625q-1.15625 -1.171875 -1.15625 -2.8125zm11.203127 0q0 -1.640625 1.15625 -2.796875q1.171875 -1.15625 2.796875 -1.15625q1.640625 0 2.796875 1.15625q1.171875 1.15625 1.171875 2.796875q0 1.640625 -1.171875 2.8125q-1.15625 1.15625 -2.796875 1.15625q-1.625 0 -2.796875 -1.15625q-1.15625 -1.171875 -1.15625 -2.8125zm11.203125 0q0 -1.640625 1.15625 -2.796875q1.171875 -1.15625 2.796875 -1.15625q1.640625 0 2.796875 1.15625q1.171875 1.15625 1.171875 2.796875q0 1.640625 -1.171875 2.8125q-1.15625 1.15625 -2.796875 1.15625q-1.625 0 -2.796875 -1.15625q-1.15625 -1.171875 -1.15625 -2.8125zm11.203125 0q0 -1.640625 1.15625 -2.796875q1.171875 -1.15625 2.796875 -1.15625q1.640625 0 2.796875 1.15625q1.171875 1.15625 1.171875 2.796875q0 1.640625 -1.171875 2.8125q-1.15625 1.15625 -2.796875 1.15625q-1.625 0 -2.796875 -1.15625q-1.15625 -1.171875 -1.15625 -2.8125zm11.203125 0q0 -1.640625 1.15625 -2.796875q1.171875 -1.15625 2.796875 -1.15625q1.640625 0 2.796875 1.15625q1.171875 1.15625 1.171875 2.796875q0 1.640625 -1.171875 2.8125q-1.15625 1.15625 -2.796875 1.15625q-1.625 0 -2.796875 -1.15625q-1.15625 -1.171875 -1.15625 -2.8125z" fill-rule="nonzero"/><path fill="#000000" fill-opacity="0.0" d="m35.374252 19.906944l35.338585 0l0 49.795273l-35.338585 0z" fill-rule="evenodd"/><path fill="#ff0000" d="m47.377525 43.230206q-3.0625 -1.125 -4.546875 -3.203125q-1.46875 -2.078125 -1.46875 -4.984375q0 -4.375 3.140625 -7.34375q3.140625 -2.984375 8.359375 -2.984375q5.25 0 8.453125 3.046875q3.203125 3.046875 3.203125 7.421875q0 2.796875 -1.46875 4.859375q-1.453125 2.0625 -4.4375 3.1875q3.6875 1.203125 5.609375 3.890625q1.9375 2.671875 1.9375 6.390625q0 5.140625 -3.640625 8.640625q-3.640625 3.5000038 -9.5625 3.5000038q-5.9375 0 -9.578125 -3.5156288q-3.640625 -3.515625 -3.640625 -8.765625q0 -3.90625 1.984375 -6.546875q1.984375 -2.640625 5.65625 -3.59375zm-0.984375 -8.34375q0 2.84375 1.828125 4.65625q1.828125 1.796875 4.75 1.796875q2.84375 0 4.65625 -1.78125q1.828125 -1.796875 1.828125 -4.40625q0 -2.703125 -1.875 -4.546875q-1.875 -1.84375 -4.65625 -1.84375q-2.8125 0 -4.671875 1.8125q-1.859375 1.796875 -1.859375 4.3125zm-1.59375 18.515625q0 2.09375 1.0 4.0625q1.0 1.96875 2.96875 3.0625q1.96875 1.078125 4.234375 1.078125q3.53125 0 5.828125 -2.265625q2.296875 -2.28125 2.296875 -5.78125q0 -3.546875 -2.375 -5.875q-2.359375 -2.328125 -5.90625 -2.328125q-3.484375 0 -5.765625 2.296875q-2.28125 2.296875 -2.28125 5.75z" fill-rule="nonzero"/></g></svg>