<svg version="1.1" viewBox="0.0 0.0 106.08923884514435 106.08923884514435" fill="none" stroke="none" stroke-linecap="square" stroke-miterlimit="10" xmlns:xlink="http://www.w3.org/1999/xlink" xmlns="http://www.w3.org/2000/svg"><clipPath id="p.0"><path d="m0 0l106.08924 0l0 106.08924l-106.08924 0l0 -106.08924z" clip-rule="nonzero"/></clipPath><g clip-path="url(#p.0)"><path fill="#000000" fill-opacity="0.0" d="m0 0l106.08924 0l0 106.08924l-106.08924 0z" fill-rule="evenodd"/><path fill="#ffdfbe" d="m0.20679948 53.00995l0 0c0 -29.162374 23.640776 -52.80315 52.80315 -52.80315l0 0c14.004265 0 27.434952 5.563173 37.337463 15.465685c9.902512 9.902511 15.465683 23.333199 15.465683 37.337463l0 0c0 29.162376 -23.64077 52.803146 -52.803146 52.803146l0 0c-29.162374 0 -52.80315 -23.64077 -52.80315 -52.803146z" fill-rule="evenodd"/><path fill="#000000" fill-opacity="0.0" d="m18.498617 61.32965l68.97638 0l0 28.409447l-68.97638 0z" fill-rule="evenodd"/><path fill="#000000" d="m37.885246 80.8309q0 -1.640625 1.15625 -2.796875q1.171875 -1.15625 2.796875 -1.15625q1.640625 0 2.796875 1.15625q1.171875 1.15625 1.171875 2.796875q0 1.640625 -1.171875 2.8125q-1.15625 1.15625 -2.796875 1.15625q-1.625 0 -2.796875 -1.15625q-1.15625 -1.171875 -1.15625 -2.8125zm11.203125 0q0 -1.640625 1.15625 -2.796875q1.171875 -1.15625 2.796875 -1.15625q1.640625 0 2.796875 1.15625q1.171875 1.15625 1.171875 2.796875q0 1.640625 -1.171875 2.8125q-1.15625 1.15625 -2.796875 1.15625q-1.625 0 -2.796875 -1.15625q-1.15625 -1.171875 -1.15625 -2.8125zm11.203125 0q0 -1.640625 1.15625 -2.796875q1.171875 -1.15625 2.796875 -1.15625q1.640625 0 2.796875 1.15625q1.171875 1.15625 1.171875 2.796875q0 1.640625 -1.171875 2.8125q-1.15625 1.15625 -2.796875 1.15625q-1.625 0 -2.796875 -1.15625q-1.15625 -1.171875 -1.15625 -2.8125z" fill-rule="nonzero"/><path fill="#000000" fill-opacity="0.0" d="m35.374252 19.906944l35.338585 0l0 49.795273l-35.338585 0z" fill-rule="evenodd"/><path fill="#000000" d="m55.58065 64.964584l0 -9.593754l-17.390625 0l0 -4.515625l18.28125 -25.984375l4.03125 0l0 25.984375l5.40625 0l0 4.515625l-5.40625 0l0 9.593754l-4.921875 0zm0 -14.109379l0 -18.078125l-12.5625 18.078125l12.5625 0z" fill-rule="nonzero"/></g></svg>