<svg version="1.1" viewBox="0.0 0.0 106.08923884514435 106.08923884514435" fill="none" stroke="none" stroke-linecap="square" stroke-miterlimit="10" xmlns:xlink="http://www.w3.org/1999/xlink" xmlns="http://www.w3.org/2000/svg"><clipPath id="p.0"><path d="m0 0l106.08924 0l0 106.08924l-106.08924 0l0 -106.08924z" clip-rule="nonzero"/></clipPath><g clip-path="url(#p.0)"><path fill="#000000" fill-opacity="0.0" d="m0 0l106.08924 0l0 106.08924l-106.08924 0z" fill-rule="evenodd"/><path fill="#ffdfbe" d="m0.20679948 53.00995l0 0c0 -29.162374 23.640776 -52.80315 52.80315 -52.80315l0 0c14.004265 0 27.434952 5.563173 37.337463 15.465685c9.902512 9.902511 15.465683 23.333199 15.465683 37.337463l0 0c0 29.162376 -23.64077 52.803146 -52.803146 52.803146l0 0c-29.162374 0 -52.80315 -23.64077 -52.80315 -52.803146z" fill-rule="evenodd"/><path fill="#000000" fill-opacity="0.0" d="m18.498617 61.32965l68.97638 0l0 28.409447l-68.97638 0z" fill-rule="evenodd"/><path fill="#000000" d="m32.283684 80.8309q0 -1.640625 1.15625 -2.796875q1.171875 -1.15625 2.796875 -1.15625q1.640625 0 2.796875 1.15625q1.171875 1.15625 1.171875 2.796875q0 1.640625 -1.171875 2.8125q-1.15625 1.15625 -2.796875 1.15625q-1.625 0 -2.796875 -1.15625q-1.15625 -1.171875 -1.15625 -2.8125zm11.203125 0q0 -1.640625 1.15625 -2.796875q1.171875 -1.15625 2.796875 -1.15625q1.640625 0 2.796875 1.15625q1.171875 1.15625 1.171875 2.796875q0 1.640625 -1.171875 2.8125q-1.15625 1.15625 -2.796875 1.15625q-1.625 0 -2.796875 -1.15625q-1.15625 -1.171875 -1.15625 -2.8125zm11.203125 0q0 -1.640625 1.15625 -2.796875q1.171875 -1.15625 2.796875 -1.15625q1.640625 0 2.796875 1.15625q1.171875 1.15625 1.171875 2.796875q0 1.640625 -1.171875 2.8125q-1.15625 1.15625 -2.796875 1.15625q-1.625 0 -2.796875 -1.15625q-1.15625 -1.171875 -1.15625 -2.8125zm11.203125 0q0 -1.640625 1.15625 -2.796875q1.171875 -1.15625 2.796875 -1.15625q1.640625 0 2.796875 1.15625q1.171875 1.15625 1.171875 2.796875q0 1.640625 -1.171875 2.8125q-1.15625 1.15625 -2.796875 1.15625q-1.625 0 -2.796875 -1.15625q-1.15625 -1.171875 -1.15625 -2.8125z" fill-rule="nonzero"/><path fill="#000000" fill-opacity="0.0" d="m35.374252 19.906944l35.338585 0l0 49.795273l-35.338585 0z" fill-rule="evenodd"/><path fill="#000000" d="m40.533775 55.698956l4.734375 -0.4375q0.59375 3.328125 2.28125 4.84375q1.703125 1.5 4.359375 1.5q2.265625 0 3.96875 -1.03125q1.71875 -1.046875 2.8125 -2.78125q1.09375 -1.75 1.828125 -4.703125q0.75 -2.953125 0.75 -6.015625q0 -0.328125 -0.03125 -0.984375q-1.484375 2.359375 -4.046875 3.828125q-2.546875 1.453125 -5.53125 1.453125q-4.96875 0 -8.421875 -3.609375q-3.4375 -3.609375 -3.4375 -9.515625q0 -6.09375 3.59375 -9.8125q3.59375 -3.71875 9.015625 -3.71875q3.90625 0 7.140625 2.109375q3.25 2.09375 4.921875 6.0q1.6875 3.890625 1.6875 11.28125q0 7.671875 -1.671875 12.234375q-1.671875 4.546875 -4.96875 6.9375q-3.28125 2.3750038 -7.71875 2.3750038q-4.703125 0 -7.6875 -2.6093788q-2.96875 -2.625 -3.578125 -7.34375zm20.15625 -17.703125q0 -4.234375 -2.265625 -6.71875q-2.25 -2.484375 -5.421875 -2.484375q-3.28125 0 -5.71875 2.6875q-2.421875 2.671875 -2.421875 6.9375q0 3.828125 2.296875 6.21875q2.3125 2.390625 5.703125 2.390625q3.421875 0 5.625 -2.390625q2.203125 -2.390625 2.203125 -6.640625z" fill-rule="nonzero"/></g></svg>