<svg version="1.1" viewBox="0.0 0.0 106.08923884514435 106.08923884514435" fill="none" stroke="none" stroke-linecap="square" stroke-miterlimit="10" xmlns:xlink="http://www.w3.org/1999/xlink" xmlns="http://www.w3.org/2000/svg"><clipPath id="p.0"><path d="m0 0l106.08924 0l0 106.08924l-106.08924 0l0 -106.08924z" clip-rule="nonzero"/></clipPath><g clip-path="url(#p.0)"><path fill="#000000" fill-opacity="0.0" d="m0 0l106.08924 0l0 106.08924l-106.08924 0z" fill-rule="evenodd"/><path fill="#ffdfbe" d="m0.20679948 53.00995l0 0c0 -29.162374 23.640776 -52.80315 52.80315 -52.80315l0 0c14.004265 0 27.434952 5.563173 37.337463 15.465685c9.902512 9.902511 15.465683 23.333199 15.465683 37.337463l0 0c0 29.162376 -23.64077 52.803146 -52.803146 52.803146l0 0c-29.162374 0 -52.80315 -23.64077 -52.80315 -52.803146z" fill-rule="evenodd"/><path fill="#000000" fill-opacity="0.0" d="m18.498617 61.32965l68.97638 0l0 28.409447l-68.97638 0z" fill-rule="evenodd"/><path fill="#ff0000" d="m26.68212 80.8309q0 -1.640625 1.15625 -2.796875q1.171875 -1.15625 2.796875 -1.15625q1.6406269 0 2.796877 1.15625q1.171875 1.15625 1.171875 2.796875q0 1.640625 -1.171875 2.8125q-1.15625 1.15625 -2.796877 1.15625q-1.625 0 -2.796875 -1.15625q-1.15625 -1.171875 -1.15625 -2.8125zm11.203127 0q0 -1.640625 1.15625 -2.796875q1.171875 -1.15625 2.796875 -1.15625q1.640625 0 2.796875 1.15625q1.171875 1.15625 1.171875 2.796875q0 1.640625 -1.171875 2.8125q-1.15625 1.15625 -2.796875 1.15625q-1.625 0 -2.796875 -1.15625q-1.15625 -1.171875 -1.15625 -2.8125zm11.203125 0q0 -1.640625 1.15625 -2.796875q1.171875 -1.15625 2.796875 -1.15625q1.640625 0 2.796875 1.15625q1.171875 1.15625 1.171875 2.796875q0 1.640625 -1.171875 2.8125q-1.15625 1.15625 -2.796875 1.15625q-1.625 0 -2.796875 -1.15625q-1.15625 -1.171875 -1.15625 -2.8125zm11.203125 0q0 -1.640625 1.15625 -2.796875q1.171875 -1.15625 2.796875 -1.15625q1.640625 0 2.796875 1.15625q1.171875 1.15625 1.171875 2.796875q0 1.640625 -1.171875 2.8125q-1.15625 1.15625 -2.796875 1.15625q-1.625 0 -2.796875 -1.15625q-1.15625 -1.171875 -1.15625 -2.8125zm11.203125 0q0 -1.640625 1.15625 -2.796875q1.171875 -1.15625 2.796875 -1.15625q1.640625 0 2.796875 1.15625q1.171875 1.15625 1.171875 2.796875q0 1.640625 -1.171875 2.8125q-1.15625 1.15625 -2.796875 1.15625q-1.625 0 -2.796875 -1.15625q-1.15625 -1.171875 -1.15625 -2.8125z" fill-rule="nonzero"/><path fill="#000000" fill-opacity="0.0" d="m35.374252 19.906944l35.338585 0l0 49.795273l-35.338585 0z" fill-rule="evenodd"/><path fill="#ff0000" d="m65.33065 34.698956l-4.890625 0.375q-0.65625 -2.890625 -1.859375 -4.203125q-2.0 -2.109375 -4.921875 -2.109375q-2.34375 0 -4.125 1.3125q-2.328125 1.6875 -3.671875 4.953125q-1.328125 3.25 -1.390625 9.265625q1.78125 -2.703125 4.34375 -4.015625q2.578125 -1.3125 5.390625 -1.3125q4.921875 0 8.375 3.625q3.46875 3.609375 3.46875 9.359375q0 3.765625 -1.625 7.015625q-1.625 3.234375 -4.46875 4.96875q-2.84375 1.7187538 -6.453125 1.7187538q-6.15625 0 -10.046875 -4.531254q-3.875 -4.53125 -3.875 -14.921875q0 -11.609375 4.296875 -16.890625q3.734375 -4.59375 10.078125 -4.59375q4.734375 0 7.75 2.65625q3.03125 2.640625 3.625 7.328125zm-20.09375 17.28125q0 2.53125 1.078125 4.859375q1.078125 2.328125 3.015625 3.546875q1.953125 1.21875 4.078125 1.21875q3.125 0 5.359375 -2.515625q2.25 -2.515625 2.25 -6.84375q0 -4.15625 -2.21875 -6.546875q-2.21875 -2.390625 -5.578125 -2.390625q-3.328125 0 -5.65625 2.390625q-2.328125 2.390625 -2.328125 6.28125z" fill-rule="nonzero"/></g></svg>