<svg version="1.1" viewBox="0.0 0.0 106.08923884514435 106.08923884514435" fill="none" stroke="none" stroke-linecap="square" stroke-miterlimit="10" xmlns:xlink="http://www.w3.org/1999/xlink" xmlns="http://www.w3.org/2000/svg"><clipPath id="p.0"><path d="m0 0l106.08924 0l0 106.08924l-106.08924 0l0 -106.08924z" clip-rule="nonzero"/></clipPath><g clip-path="url(#p.0)"><path fill="#000000" fill-opacity="0.0" d="m0 0l106.08924 0l0 106.08924l-106.08924 0z" fill-rule="evenodd"/><path fill="#ffdfbe" d="m0.20679948 53.00995l0 0c0 -29.162374 23.640776 -52.80315 52.80315 -52.80315l0 0c14.004265 0 27.434952 5.563173 37.337463 15.465685c9.902512 9.902511 15.465683 23.333199 15.465683 37.337463l0 0c0 29.162376 -23.64077 52.803146 -52.803146 52.803146l0 0c-29.162374 0 -52.80315 -23.64077 -52.80315 -52.803146z" fill-rule="evenodd"/><path fill="#000000" fill-opacity="0.0" d="m18.498617 61.32965l68.97638 0l0 28.409447l-68.97638 0z" fill-rule="evenodd"/><path fill="#000000" d="m37.885246 80.8309q0 -1.640625 1.15625 -2.796875q1.171875 -1.15625 2.796875 -1.15625q1.640625 0 2.796875 1.15625q1.171875 1.15625 1.171875 2.796875q0 1.640625 -1.171875 2.8125q-1.15625 1.15625 -2.796875 1.15625q-1.625 0 -2.796875 -1.15625q-1.15625 -1.171875 -1.15625 -2.8125zm11.203125 0q0 -1.640625 1.15625 -2.796875q1.171875 -1.15625 2.796875 -1.15625q1.640625 0 2.796875 1.15625q1.171875 1.15625 1.171875 2.796875q0 1.640625 -1.171875 2.8125q-1.15625 1.15625 -2.796875 1.15625q-1.625 0 -2.796875 -1.15625q-1.15625 -1.171875 -1.15625 -2.8125zm11.203125 0q0 -1.640625 1.15625 -2.796875q1.171875 -1.15625 2.796875 -1.15625q1.640625 0 2.796875 1.15625q1.171875 1.15625 1.171875 2.796875q0 1.640625 -1.171875 2.8125q-1.15625 1.15625 -2.796875 1.15625q-1.625 0 -2.796875 -1.15625q-1.15625 -1.171875 -1.15625 -2.8125z" fill-rule="nonzero"/><path fill="#000000" fill-opacity="0.0" d="m17.68504 20.328083l66.708664 0l0 49.795277l-66.708664 0z" fill-rule="evenodd"/><path fill="#000000" d="m40.754215 65.38572l-4.921875 0l0 -31.359375q-1.765625 1.6875 -4.65625 3.390625q-2.890625 1.6875 -5.1875 2.53125l0 -4.75q4.140625 -1.9375 7.21875 -4.703125q3.09375 -2.765625 4.375 -5.359375l3.171875 0l0 40.25zm12.613281 -19.765625q0 -7.109375 1.453125 -11.4375q1.46875 -4.34375 4.34375 -6.6875q2.890625 -2.359375 7.265621 -2.359375q3.234375 0 5.65625 1.296875q2.4375 1.296875 4.015625 3.75q1.59375 2.4375 2.5 5.953125q0.90625 3.515625 0.90625 9.484375q0 7.046875 -1.453125 11.390625q-1.453125 4.328125 -4.34375 6.703125q-2.875 2.359375 -7.28125 2.359375q-5.796871 0 -9.093746 -4.15625q-3.96875 -5.015625 -3.96875 -16.296875zm5.0625 0q0 9.859375 2.296875 13.140625q2.3125 3.265625 5.703121 3.265625q3.390625 0 5.703125 -3.28125q2.3125 -3.28125 2.3125 -13.125q0 -9.90625 -2.3125 -13.15625q-2.3125 -3.25 -5.75 -3.25q-3.3906212 0 -5.421871 2.859375q-2.53125 3.671875 -2.53125 13.546875z" fill-rule="nonzero"/></g></svg>