<svg version="1.1" viewBox="0.0 0.0 106.08923884514435 106.08923884514435" fill="none" stroke="none" stroke-linecap="square" stroke-miterlimit="10" xmlns:xlink="http://www.w3.org/1999/xlink" xmlns="http://www.w3.org/2000/svg"><clipPath id="p.0"><path d="m0 0l106.08924 0l0 106.08924l-106.08924 0l0 -106.08924z" clip-rule="nonzero"/></clipPath><g clip-path="url(#p.0)"><path fill="#000000" fill-opacity="0.0" d="m0 0l106.08924 0l0 106.08924l-106.08924 0z" fill-rule="evenodd"/><path fill="#ffdfbe" d="m0.20679948 53.00995l0 0c0 -29.162374 23.640776 -52.80315 52.80315 -52.80315l0 0c14.004265 0 27.434952 5.563173 37.337463 15.465685c9.902512 9.902511 15.465683 23.333199 15.465683 37.337463l0 0c0 29.162376 -23.64077 52.803146 -52.803146 52.803146l0 0c-29.162374 0 -52.80315 -23.64077 -52.80315 -52.803146z" fill-rule="evenodd"/><path fill="#000000" fill-opacity="0.0" d="m18.498617 61.32965l68.97638 0l0 28.409447l-68.97638 0z" fill-rule="evenodd"/><path fill="#000000" d="m43.48681 80.8309q0 -1.640625 1.15625 -2.796875q1.171875 -1.15625 2.796875 -1.15625q1.640625 0 2.796875 1.15625q1.171875 1.15625 1.171875 2.796875q0 1.640625 -1.171875 2.8125q-1.15625 1.15625 -2.796875 1.15625q-1.625 0 -2.796875 -1.15625q-1.15625 -1.171875 -1.15625 -2.8125zm11.203125 0q0 -1.640625 1.15625 -2.796875q1.171875 -1.15625 2.796875 -1.15625q1.640625 0 2.796875 1.15625q1.171875 1.15625 1.171875 2.796875q0 1.640625 -1.171875 2.8125q-1.15625 1.15625 -2.796875 1.15625q-1.625 0 -2.796875 -1.15625q-1.15625 -1.171875 -1.15625 -2.8125z" fill-rule="nonzero"/><path fill="#000000" fill-opacity="0.0" d="m35.374252 19.906944l35.338585 0l0 49.795273l-35.338585 0z" fill-rule="evenodd"/><path fill="#000000" d="m39.83065 54.386456l4.921875 -0.65625q0.84375 4.171875 2.875 6.03125q2.046875 1.84375 4.96875 1.84375q3.46875 0 5.859375 -2.40625q2.390625 -2.40625 2.390625 -5.96875q0 -3.390625 -2.21875 -5.59375q-2.203125 -2.203125 -5.625 -2.203125q-1.390625 0 -3.46875 0.546875l0.546875 -4.3125q0.484375 0.046875 0.796875 0.046875q3.140625 0 5.65625 -1.640625q2.515625 -1.640625 2.515625 -5.046875q0 -2.71875 -1.84375 -4.484375q-1.828125 -1.78125 -4.71875 -1.78125q-2.875 0 -4.796875 1.8125q-1.90625 1.796875 -2.453125 5.40625l-4.921875 -0.875q0.90625 -4.953125 4.09375 -7.671875q3.203125 -2.71875 7.96875 -2.71875q3.28125 0 6.03125 1.40625q2.765625 1.40625 4.234375 3.84375q1.46875 2.4375 1.46875 5.171875q0 2.59375 -1.40625 4.734375q-1.390625 2.125 -4.125 3.375q3.5625 0.828125 5.53125 3.421875q1.96875 2.578125 1.96875 6.453125q0 5.25 -3.828125 8.90625q-3.828125 3.6562538 -9.6875 3.6562538q-5.28125 0 -8.765625 -3.1406288q-3.484375 -3.15625 -3.96875 -8.15625z" fill-rule="nonzero"/></g></svg>