<svg version="1.1" viewBox="0.0 0.0 106.08923884514435 106.08923884514435" fill="none" stroke="none" stroke-linecap="square" stroke-miterlimit="10" xmlns:xlink="http://www.w3.org/1999/xlink" xmlns="http://www.w3.org/2000/svg"><clipPath id="p.0"><path d="m0 0l106.08924 0l0 106.08924l-106.08924 0l0 -106.08924z" clip-rule="nonzero"/></clipPath><g clip-path="url(#p.0)"><path fill="#000000" fill-opacity="0.0" d="m0 0l106.08924 0l0 106.08924l-106.08924 0z" fill-rule="evenodd"/><path fill="#ffdfbe" d="m0.20679948 53.00995l0 0c0 -29.162374 23.640776 -52.80315 52.80315 -52.80315l0 0c14.004265 0 27.434952 5.563173 37.337463 15.465685c9.902512 9.902511 15.465683 23.333199 15.465683 37.337463l0 0c0 29.162376 -23.64077 52.803146 -52.803146 52.803146l0 0c-29.162374 0 -52.80315 -23.64077 -52.80315 -52.803146z" fill-rule="evenodd"/><path fill="#000000" fill-opacity="0.0" d="m18.498617 61.32965l68.97638 0l0 28.409447l-68.97638 0z" fill-rule="evenodd"/><path fill="#000000" d="m49.08837 80.8309q0 -1.640625 1.15625 -2.796875q1.171875 -1.15625 2.796875 -1.15625q1.640625 0 2.796875 1.15625q1.171875 1.15625 1.171875 2.796875q0 1.640625 -1.171875 2.8125q-1.15625 1.15625 -2.796875 1.15625q-1.625 0 -2.796875 -1.15625q-1.15625 -1.171875 -1.15625 -2.8125z" fill-rule="nonzero"/><path fill="#000000" fill-opacity="0.0" d="m17.68504 20.328083l66.708664 0l0 49.795277l-66.708664 0z" fill-rule="evenodd"/><path fill="#000000" d="m40.754215 65.38572l-4.921875 0l0 -31.359375q-1.765625 1.6875 -4.65625 3.390625q-2.890625 1.6875 -5.1875 2.53125l0 -4.75q4.140625 -1.9375 7.21875 -4.703125q3.09375 -2.765625 4.375 -5.359375l3.171875 0l0 40.25zm38.472652 -4.734375l0 4.734375l-26.484371 0q-0.0625 -1.78125 0.5625 -3.421875q1.015625 -2.703125 3.234375 -5.328125q2.234375 -2.625 6.453125 -6.078125q6.531246 -5.359375 8.828121 -8.484375q2.296875 -3.125 2.296875 -5.921875q0 -2.921875 -2.09375 -4.921875q-2.09375 -2.015625 -5.453125 -2.015625q-3.5468712 0 -5.687496 2.140625q-2.125 2.125 -2.15625 5.890625l-5.0625 -0.515625q0.515625 -5.65625 3.90625 -8.625q3.390625 -2.96875 9.109371 -2.96875q5.765625 0 9.125 3.203125q3.375 3.1875 3.375 7.921875q0 2.40625 -0.984375 4.734375q-0.984375 2.328125 -3.265625 4.90625q-2.28125 2.5625 -7.59375 7.046875q-4.421871 3.71875 -5.687496 5.046875q-1.25 1.3125 -2.078125 2.65625l19.656246 0z" fill-rule="nonzero"/></g></svg>